<svg preserveAspectRatio="none" width="100%" height="100%" overflow="visible" style="display: block;" viewBox="0 0 14 22.5685" fill="none" xmlns="http://www.w3.org/2000/svg">
<path id="event" d="M4.80957 2.00817C4.55994 1.75757 4.21361 1.60319 3.82754 1.60319C3.44243 1.60319 3.09877 1.75757 2.8523 2.00817H2.84599C2.59709 2.25707 2.44271 2.60436 2.44271 2.98802C2.44271 3.37385 2.59709 3.71896 2.84599 3.96544L2.8523 3.97223C3.09877 4.22064 3.44243 4.37284 3.82754 4.37284C4.21361 4.37284 4.55994 4.22064 4.80957 3.97223L4.81248 3.96544C5.06235 3.71896 5.21479 3.37385 5.21479 2.98802C5.21479 2.60436 5.06235 2.25707 4.81248 2.00817H4.80957ZM3.82754 20.9653C4.21361 20.9653 4.55994 20.808 4.80957 20.562L4.81248 20.5548C5.06235 20.3092 5.21479 19.962 5.21479 19.5802C5.21479 19.1944 5.06235 18.8488 4.81248 18.5987H4.80957C4.55994 18.3457 4.21361 18.1927 3.82754 18.1927C3.44243 18.1927 3.09877 18.3457 2.8523 18.5987H2.84599C2.59709 18.8488 2.44271 19.1944 2.44271 19.5802C2.44271 19.962 2.59709 20.3092 2.84599 20.5548L2.8523 20.562C3.09877 20.808 3.44243 20.9653 3.82754 20.9653ZM11.3728 16.7694C11.7158 16.6792 12.0262 16.4592 12.216 16.1262L12.2414 16.0775C12.4101 15.7622 12.4409 15.3976 12.3507 15.0741C12.2599 14.7287 12.0374 14.4224 11.7051 14.2317L11.6855 14.2186C11.3617 14.0407 10.9933 14.0019 10.6545 14.0943C10.3101 14.1803 10.0006 14.4096 9.81205 14.7396C9.62108 15.0678 9.58133 15.4449 9.6727 15.792C9.76697 16.1334 9.98776 16.442 10.3181 16.6349H10.32C10.6511 16.8251 11.0253 16.8593 11.3728 16.7694ZM5.24799 9.86513C4.88446 9.50256 4.38278 9.27523 3.82754 9.27523C3.27303 9.27523 2.7728 9.50256 2.40999 9.86513C2.0484 10.2272 1.82543 10.7267 1.82543 11.2819C1.82543 11.8372 2.0484 12.3389 2.40999 12.7051C2.7728 13.0654 3.27303 13.2906 3.82754 13.2906C4.38278 13.2906 4.88446 13.0654 5.24799 12.7051C5.61056 12.3389 5.83353 11.8372 5.83353 11.2819C5.83353 10.7267 5.61056 10.2272 5.24799 9.86513ZM4.44918 7.50482C5.25526 7.63763 5.97894 8.0237 6.53224 8.58088H6.53636C6.62434 8.66861 6.70989 8.76531 6.78962 8.86177L8.17227 8.06199C7.98638 7.50021 7.97766 6.91298 8.12719 6.36211C8.32423 5.62461 8.80239 4.96443 9.51929 4.55073L9.54255 4.53595C10.2517 4.13485 11.0575 4.05123 11.7848 4.24827C12.5216 4.44579 13.1861 4.92614 13.5998 5.64182V5.644C14.0116 6.3558 14.095 7.17255 13.8987 7.90786C13.7026 8.64511 13.2227 9.30989 12.5066 9.72117L12.3178 9.83265H12.2986C11.6363 10.148 10.908 10.1974 10.2391 10.0212C9.6899 9.87579 9.18629 9.56897 8.79173 9.13394L7.41103 9.93153C7.56977 10.3513 7.6575 10.8038 7.6575 11.2819C7.6575 11.7577 7.56977 12.2167 7.41103 12.6387L8.79173 13.4341C9.18629 12.9923 9.6899 12.6925 10.2391 12.5466C10.9761 12.3452 11.7928 12.4307 12.5066 12.8468L12.5524 12.8682V12.8704C13.2419 13.2884 13.7048 13.9336 13.8987 14.6623C14.095 15.3933 14.0116 16.2105 13.5998 16.9238L13.5749 16.9734L13.572 16.9693C13.1585 17.6569 12.5066 18.1227 11.787 18.3197C11.049 18.5144 10.2321 18.4312 9.51929 18.0212V18.0156C8.80239 17.6012 8.32423 16.9395 8.12719 16.2035C7.97766 15.655 7.98638 15.0678 8.17227 14.5063L6.78962 13.7084C6.70989 13.8049 6.62434 13.8972 6.53636 13.9849L6.53224 13.9893C5.97894 14.5446 5.25526 14.9304 4.44918 15.0588V16.6564C5.02357 16.7764 5.53785 17.0636 5.94065 17.4666L5.94283 17.4708C6.4828 18.0083 6.81725 18.7572 6.81725 19.5802C6.81725 20.4009 6.4828 21.1454 5.94283 21.6856L5.94065 21.6941C5.3968 22.234 4.65082 22.5685 3.82754 22.5685C3.00862 22.5685 2.2607 22.234 1.71807 21.6941H1.71589V21.6856C1.17543 21.1454 0.840251 20.4009 0.840251 19.5802C0.840251 18.7572 1.17543 18.0083 1.71589 17.4708V17.4666H1.71807C2.12062 17.0636 2.63587 16.7764 3.20808 16.6564V15.0588C2.40224 14.9304 1.67977 14.5446 1.12744 13.9893L1.12163 13.9849C0.43188 13.2928 0 12.3389 0 11.2819C0 10.2272 0.43188 9.27329 1.12163 8.58088H1.12744C1.67977 8.0237 2.40224 7.63763 3.20808 7.50482V5.91399C2.63587 5.7899 2.12062 5.50271 1.71807 5.10185H1.71589V5.09749C1.17543 4.55509 0.840251 3.8113 0.840251 2.98802C0.840251 2.16909 1.17543 1.41876 1.71589 0.878543L1.71807 0.876362C2.2607 0.33421 3.00862 0 3.82754 0C4.65082 0 5.3968 0.33421 5.94065 0.876362V0.878543H5.94283C6.4828 1.41876 6.81725 2.16909 6.81725 2.98802C6.81725 3.8113 6.4828 4.55509 5.94283 5.09749L5.94065 5.10185C5.53785 5.50271 5.02357 5.7899 4.44918 5.91399V7.50482ZM12.216 6.44378L12.2041 6.42633C12.0136 6.10496 11.7092 5.89072 11.3728 5.79838C11.0253 5.70605 10.6511 5.74482 10.3181 5.9358H10.32C9.98776 6.12435 9.76552 6.43263 9.6727 6.77823C9.58133 7.12117 9.62108 7.50021 9.81205 7.83054L9.8186 7.83903C10.0098 8.165 10.3145 8.3836 10.6545 8.47158C10.9962 8.56828 11.3769 8.52732 11.7051 8.33634L11.7228 8.32786C12.0459 8.13494 12.2611 7.83054 12.3507 7.49609C12.4423 7.15098 12.4058 6.77387 12.216 6.44378Z" fill="url(#paint0_linear_0_17)"/>
<defs>
<linearGradient id="paint0_linear_0_17" x1="19" y1="-0.715759" x2="-9.93857" y2="12.3257" gradientUnits="userSpaceOnUse">
<stop stop-color="#F4007A"/>
<stop offset="1" stop-color="#FFC400"/>
</linearGradient>
</defs>
</svg>
